<?xml version="1.0" encoding="UTF-8" standalone="no"?>
<svg
   xmlns:dc="http://purl.org/dc/elements/1.1/"
   xmlns:cc="http://creativecommons.org/ns#"
   xmlns:rdf="http://www.w3.org/1999/02/22-rdf-syntax-ns#"
   xmlns:svg="http://www.w3.org/2000/svg"
   xmlns="http://www.w3.org/2000/svg"
   xmlns:sodipodi="http://sodipodi.sourceforge.net/DTD/sodipodi-0.dtd"
   xmlns:inkscape="http://www.inkscape.org/namespaces/inkscape"
   version="1.1"
   viewBox="0.0 0.0 960.0 720.0"
   fill="none"
   stroke="none"
   stroke-linecap="square"
   stroke-miterlimit="10"
   id="svg4141"
   inkscape:version="0.91+devel+osxmenu r12922"
   sodipodi:docname="explore-refactor_loop.svg"
   inkscape:export-filename="explore-refactor_loop.png"
   inkscape:export-xdpi="220"
   inkscape:export-ydpi="220">
  <metadata
     id="metadata4242">
    <rdf:RDF>
      <cc:Work
         rdf:about="">
        <dc:format>image/svg+xml</dc:format>
        <dc:type
           rdf:resource="http://purl.org/dc/dcmitype/StillImage" />
      </cc:Work>
    </rdf:RDF>
  </metadata>
  <defs
     id="defs4240" />
  <sodipodi:namedview
     pagecolor="#ffffff"
     bordercolor="#666666"
     borderopacity="1"
     objecttolerance="10"
     gridtolerance="10"
     guidetolerance="10"
     inkscape:pageopacity="0"
     inkscape:pageshadow="2"
     inkscape:window-width="2366"
     inkscape:window-height="1315"
     id="namedview4238"
     showgrid="false"
     inkscape:zoom="1.4947917"
     inkscape:cx="488.69686"
     inkscape:cy="360"
     inkscape:window-x="0"
     inkscape:window-y="23"
     inkscape:window-maximized="0"
     inkscape:current-layer="svg4141" />
  <clipPath
     id="p.0">
    <path
       d="m0 0l960.0 0l0 720.0l-960.0 0l0 -720.0z"
       clip-rule="nonzero"
       id="path4144" />
  </clipPath>
  <g
     clip-path="url(#p.0)"
     id="g4146">
    <path
       fill="#000000"
       fill-opacity="0.0"
       d="m0 0l960.0 0l0 720.0l-960.0 0z"
       fill-rule="evenodd"
       id="path4148" />
    <path
       fill="#000000"
       fill-opacity="0.0"
       d="m824.3132 517.11035l0 0c-14.226746 51.25531 -171.21637 90.217224 -355.5183 88.23303c-184.30197 -1.9841309 -330.04156 -44.20526 -330.04156 -95.61374l343.29132 0z"
       fill-rule="evenodd"
       id="path4150" />
    <path
       fill="#000000"
       fill-opacity="0.0"
       d="m824.3132 517.11035l0 0c-14.226746 51.25531 -171.21637 90.217224 -355.5183 88.23303c-184.30197 -1.9841309 -330.04156 -44.20526 -330.04156 -95.61374"
       fill-rule="evenodd"
       id="path4152" />
    <path
       stroke="#294b5e"
       stroke-width="8.0"
       stroke-linejoin="round"
       stroke-linecap="butt"
       d="m824.3132 517.1103l0 0c-14.226746 51.25537 -171.21637 90.217285 -355.5183 88.233154c-92.151 -0.99212646 -174.66138 -12.043457 -234.13402 -29.272766c-29.736328 -8.614746 -53.71321 -18.773865 -70.25603 -29.992432c-2.0678558 -1.4022827 -4.0195465 -2.821167 -5.8518066 -4.2556763c-0.45806885 -0.35864258 -0.90867615 -0.7182007 -1.3517609 -1.0787354l-0.07070923 -0.058166504"
       fill-rule="evenodd"
       id="path4154" />
    <path
       fill="#294b5e"
       stroke="#294b5e"
       stroke-width="8.0"
       stroke-linecap="butt"
       d="m164.7373 536.16986l-20.013855 -16.383606l4.800308 25.415283z"
       fill-rule="evenodd"
       id="path4156" />
    <path
       fill="#000000"
       fill-opacity="0.0"
       d="m139.77606 203.01303l0 0c14.226746 -51.255325 171.21637 -90.21725 355.51834 -88.23307c184.30191 1.9841766 330.04153 44.205254 330.04153 95.61375l-343.29132 0z"
       fill-rule="evenodd"
       id="path4158" />
    <path
       fill="#000000"
       fill-opacity="0.0"
       d="m139.77606 203.01303l0 0c14.226746 -51.255325 171.21637 -90.21725 355.51834 -88.23307c184.30191 1.9841766 330.04153 44.205254 330.04153 95.61375"
       fill-rule="evenodd"
       id="path4160" />
    <path
       stroke="#294b5e"
       stroke-width="8.0"
       stroke-linejoin="round"
       stroke-linecap="butt"
       d="m139.77606 203.01302l0 0c14.226746 -51.25531 171.21637 -90.21724 355.5183 -88.233055c92.151 0.9920807 174.66138 12.043404 234.13403 29.272758c29.736267 8.61467 53.713257 18.773865 70.25598 29.992416c2.0679321 1.4023132 4.0195923 2.821167 5.8518677 4.255661c0.4580078 0.35861206 0.9086304 0.71821594 1.3516846 1.0787506l0.070739746 0.058120728"
       fill-rule="evenodd"
       id="path4162" />
    <path
       fill="#294b5e"
       stroke="#294b5e"
       stroke-width="8.0"
       stroke-linecap="butt"
       d="m799.3519 183.95348l20.013855 16.383621l-4.800293 -25.415253z"
       fill-rule="evenodd"
       id="path4164" />
    <path
       fill="#ffd299"
       d="m-3.225722E-4 359.9996l0 0c0 -74.377014 60.29448 -134.6715 134.67148 -134.6715l0 0c35.717102 0 69.97131 14.188568 95.22713 39.44438c25.255798 25.255798 39.444366 59.51001 39.444366 95.22711l0 0c0 74.377014 -60.29448 134.67148 -134.6715 134.67148l0 0c-74.377 0 -134.67148 -60.294464 -134.67148 -134.67148z"
       fill-rule="evenodd"
       id="path4166" />
    <path
       fill="#009e79"
       d="m34.687767 360.01083l0 0c0 -55.22574 44.769295 -99.995026 99.99502 -99.995026l0 0c26.520325 0 51.954453 10.535156 70.70715 29.287872c18.7527 18.752686 29.287872 44.1868 29.287872 70.70715l0 0c0 55.225708 -44.769302 99.994995 -99.995026 99.994995l0 0c-55.225723 0 -99.99502 -44.769287 -99.99502 -99.994995z"
       fill-rule="evenodd"
       id="path4168" />
    <path
       fill="#ffd299"
       d="m690.6558 359.9996l0 0c0 -74.377014 60.294495 -134.6715 134.67151 -134.6715l0 0c35.717102 0 69.97131 14.188568 95.22711 39.44438c25.255798 25.255798 39.444397 59.51001 39.444397 95.22711l0 0c0 74.377014 -60.294495 134.67148 -134.67151 134.67148l0 0c-74.377014 0 -134.67151 -60.294464 -134.67151 -134.67148z"
       fill-rule="evenodd"
       id="path4170" />
    <path
       fill="#009e79"
       d="m760.90796 360.00998l0 0c0 -35.58374 28.846252 -64.43002 64.42999 -64.43002l0 0c17.08789 0 33.475952 6.788147 45.5589 18.871094c12.083008 12.082977 18.871155 28.471008 18.871155 45.55893l0 0c0 35.58371 -28.846313 64.43002 -64.43005 64.43002l0 0c-35.58374 0 -64.42999 -28.846313 -64.42999 -64.43002z"
       fill-rule="evenodd"
       id="path4172" />
    <path
       fill="#ffd299"
       d="m410.479 114.70816l0 0c0 -38.234726 31.125854 -69.2301 69.521515 -69.2301l0 0c18.438263 0 36.12137 7.2938614 49.15915 20.277027c13.037842 12.983162 20.362427 30.592102 20.362427 48.95307l0 0c0 38.234726 -31.125854 69.2301 -69.521576 69.2301l0 0c-38.39566 0 -69.521515 -30.995377 -69.521515 -69.2301z"
       fill-rule="evenodd"
       id="path4174" />
    <path
       fill="#009e79"
       d="m428.38605 114.71393l0 0c0 -28.389694 23.111267 -51.40409 51.620483 -51.40409l0 0c13.690613 0 26.820465 5.4157715 36.50122 15.055908c9.680664 9.640137 15.119263 22.714966 15.119263 36.348183l0 0c0 28.389694 -23.111267 51.404083 -51.620483 51.404083l0 0c-28.509216 0 -51.620483 -23.014389 -51.620483 -51.404083z"
       fill-rule="evenodd"
       id="path4176" />
    <path
       fill="#ffd299"
       d="m410.3288 601.35767l0 0c0 -38.478577 31.193054 -69.67163 69.67166 -69.67163l0 0c18.478088 0 36.19937 7.340393 49.26529 20.406311c13.065979 13.065979 20.406372 30.787292 20.406372 49.26532l0 0c0 38.478638 -31.193054 69.67169 -69.67166 69.67169l0 0c-38.478607 0 -69.67166 -31.193054 -69.67166 -69.67169z"
       fill-rule="evenodd"
       id="path4178" />
    <path
       fill="#009e79"
       d="m446.6734 601.36304l0 0c0 -18.409058 14.923492 -33.33258 33.33255 -33.33258l0 0c8.840363 0 17.318634 3.5118408 23.569702 9.762878c6.251068 6.2510986 9.762909 14.72937 9.762909 23.569702l0 0c0 18.409119 -14.923523 33.33258 -33.33261 33.33258l0 0c-18.409058 0 -33.33255 -14.923462 -33.33255 -33.33258z"
       fill-rule="evenodd"
       id="path4180" />
    <path
       fill="#000000"
       fill-opacity="0.0"
       d="m79.64829 339.85565l110.04725 0l0 40.409454l-110.04725 0z"
       fill-rule="evenodd"
       id="path4182" />
    <path
       fill="#000000"
       d="m90.42954 371.89563l0 -17.1875l3.421875 0l4.0625 12.171875q0.5625 1.703125 0.828125 2.546875q0.296875 -0.9375 0.90625 -2.765625l4.125 -11.953125l3.046875 0l0 17.1875l-2.1875 0l0 -14.375l-4.984375 14.375l-2.0625 0l-4.96875 -14.625l0 14.625l-2.1875 0zm19.007812 -6.21875q0 -3.46875 1.921875 -5.125q1.609375 -1.390625 3.921875 -1.390625q2.5625 0 4.1875 1.6875q1.625 1.6875 1.625 4.640625q0 2.40625 -0.71875 3.78125q-0.71875 1.375 -2.09375 2.140625q-1.375 0.765625 -3.0 0.765625q-2.625 0 -4.234375 -1.671875q-1.609375 -1.6875 -1.609375 -4.828125zm2.171875 0q0 2.390625 1.03125 3.578125q1.046875 1.1875 2.640625 1.1875q1.5625 0 2.609375 -1.1875q1.046875 -1.203125 1.046875 -3.65625q0 -2.3125 -1.0625 -3.5q-1.046875 -1.1875 -2.59375 -1.1875q-1.59375 0 -2.640625 1.1875q-1.03125 1.1875 -1.03125 3.578125zm20.035164 6.21875l0 -1.578125q-1.1875 1.859375 -3.484375 1.859375q-1.4843826 0 -2.7343826 -0.8125q-1.25 -0.828125 -1.9375 -2.296875q-0.671875 -1.46875 -0.671875 -3.390625q0 -1.859375 0.609375 -3.375q0.625 -1.515625 1.859375 -2.328125q1.25 -0.8125 2.7812576 -0.8125q1.125 0 2.0 0.484375q0.890625 0.46875 1.4375 1.234375l0 -6.171875l2.09375 0l0 17.1875l-1.953125 0zm-6.6718826 -6.21875q0 2.390625 1.0 3.578125q1.015625 1.1875 2.3906326 1.1875q1.390625 0 2.34375 -1.125q0.96875 -1.140625 0.96875 -3.453125q0 -2.5625 -0.984375 -3.75q-0.984375 -1.203125 -2.421875 -1.203125q-1.4062576 0 -2.3593826 1.15625q-0.9375 1.140625 -0.9375 3.609375zm20.097664 6.21875l0 -1.828125q-1.453125 2.109375 -3.9375 2.109375q-1.109375 0 -2.0625 -0.421875q-0.953125 -0.421875 -1.421875 -1.0625q-0.453125 -0.640625 -0.640625 -1.5625q-0.140625 -0.625 -0.140625 -1.96875l0 -7.71875l2.109375 0l0 6.90625q0 1.65625 0.140625 2.234375q0.1875 0.828125 0.828125 1.3125q0.65625 0.46875 1.609375 0.46875q0.9375 0 1.765625 -0.484375q0.84375 -0.5 1.1875 -1.328125q0.34375 -0.84375 0.34375 -2.4375l0 -6.671875l2.109375 0l0 12.453125l-1.890625 0zm5.1445312 0l0 -17.1875l2.109375 0l0 17.1875l-2.109375 0zm13.910156 -4.015625l2.171875 0.28125q-0.515625 1.90625 -1.90625 2.96875q-1.390625 1.046875 -3.5625 1.046875q-2.734375 0 -4.34375 -1.671875q-1.59375 -1.6875 -1.59375 -4.734375q0 -3.140625 1.609375 -4.875q1.625 -1.734375 4.203125 -1.734375q2.5 0 4.078125 1.703125q1.59375 1.703125 1.59375 4.78125q0 0.1875 -0.015625 0.5625l-9.28125 0q0.109375 2.046875 1.15625 3.140625q1.046875 1.09375 2.609375 1.09375q1.15625 0 1.96875 -0.609375q0.828125 -0.609375 1.3125 -1.953125zm-6.9375 -3.40625l6.953125 0q-0.140625 -1.5625 -0.796875 -2.359375q-1.0 -1.21875 -2.609375 -1.21875q-1.453125 0 -2.453125 0.984375q-0.984375 0.96875 -1.09375 2.59375zm10.910156 3.703125l2.09375 -0.328125q0.171875 1.25 0.96875 1.921875q0.8125 0.671875 2.25 0.671875q1.453125 0 2.15625 -0.59375q0.703125 -0.59375 0.703125 -1.390625q0 -0.71875 -0.625 -1.125q-0.421875 -0.28125 -2.15625 -0.71875q-2.3125 -0.578125 -3.21875 -1.0q-0.890625 -0.4375 -1.359375 -1.1875q-0.453125 -0.765625 -0.453125 -1.671875q0 -0.828125 0.375 -1.53125q0.390625 -0.71875 1.046875 -1.1875q0.484375 -0.359375 1.328125 -0.609375q0.859375 -0.265625 1.828125 -0.265625q1.46875 0 2.578125 0.421875q1.109375 0.421875 1.625 1.15625q0.53125 0.71875 0.734375 1.921875l-2.0625 0.28125q-0.140625 -0.96875 -0.8125 -1.5q-0.671875 -0.546875 -1.90625 -0.546875q-1.453125 0 -2.078125 0.484375q-0.625 0.484375 -0.625 1.125q0 0.40625 0.265625 0.734375q0.25 0.34375 0.8125 0.5625q0.3125 0.125 1.859375 0.546875q2.234375 0.59375 3.109375 0.984375q0.890625 0.375 1.390625 1.109375q0.515625 0.71875 0.515625 1.796875q0 1.046875 -0.625 1.984375q-0.609375 0.9375 -1.765625 1.453125q-1.15625 0.5 -2.625 0.5q-2.421875 0 -3.703125 -1.0q-1.265625 -1.015625 -1.625 -3.0z"
       fill-rule="nonzero"
       id="path4184" />
    <path
       fill="#000000"
       fill-opacity="0.0"
       d="m300.24408 339.85696l139.3386 0l0 40.409454l-139.3386 0z"
       fill-rule="evenodd"
       id="path4186" />
    <path
       fill="#000000"
       d="m311.15033 371.89694l0 -17.1875l12.421875 0l0 2.03125l-10.15625 0l0 5.265625l9.5 0l0 2.015625l-9.5 0l0 5.84375l10.546875 0l0 2.03125l-12.8125 0zm14.2734375 0l4.546875 -6.46875l-4.203125 -5.984375l2.640625 0l1.90625 2.921875q0.546875 0.828125 0.875 1.390625q0.515625 -0.765625 0.9375 -1.359375l2.109375 -2.953125l2.515625 0l-4.296875 5.859375l4.625 6.59375l-2.59375 0l-2.546875 -3.875l-0.6875 -1.03125l-3.265625 4.90625l-2.5625 0zm13.40625 4.765625l0 -17.21875l1.921875 0l0 1.625q0.6875 -0.953125 1.53125 -1.421875q0.859375 -0.484375 2.078125 -0.484375q1.59375 0 2.8125 0.828125q1.21875 0.8125 1.84375 2.3125q0.625 1.5 0.625 3.28125q0 1.90625 -0.6875 3.4375q-0.6875 1.53125 -2.0 2.34375q-1.296875 0.8125 -2.734375 0.8125q-1.0625 0 -1.90625 -0.4375q-0.828125 -0.453125 -1.375 -1.140625l0 6.0625l-2.109375 0zm1.921875 -10.921875q0 2.40625 0.96875 3.5625q0.96875 1.140625 2.359375 1.140625q1.40625 0 2.40625 -1.1875q1.0 -1.1875 1.0 -3.6875q0 -2.375 -0.984375 -3.5625q-0.96875 -1.1875 -2.328125 -1.1875q-1.359375 0 -2.390625 1.265625q-1.03125 1.25 -1.03125 3.65625zm11.378906 6.15625l0 -17.1875l2.109375 0l0 17.1875l-2.109375 0zm4.5976562 -6.21875q0 -3.46875 1.921875 -5.125q1.609375 -1.390625 3.921875 -1.390625q2.5625 0 4.1875 1.6875q1.625 1.6875 1.625 4.640625q0 2.40625 -0.71875 3.78125q-0.71875 1.375 -2.09375 2.140625q-1.375 0.765625 -3.0 0.765625q-2.625 0 -4.234375 -1.671875q-1.609375 -1.6875 -1.609375 -4.828125zm2.171875 0q0 2.390625 1.03125 3.578125q1.046875 1.1875 2.640625 1.1875q1.5625 0 2.609375 -1.1875q1.046875 -1.203125 1.046875 -3.65625q0 -2.3125 -1.0625 -3.5q-1.046875 -1.1875 -2.59375 -1.1875q-1.59375 0 -2.640625 1.1875q-1.03125 1.1875 -1.03125 3.578125zm11.941406 6.21875l0 -12.453125l1.890625 0l0 1.890625q0.734375 -1.328125 1.34375 -1.75q0.625 -0.421875 1.359375 -0.421875q1.0625 0 2.171875 0.6875l-0.734375 1.953125q-0.765625 -0.453125 -1.546875 -0.453125q-0.6875 0 -1.25 0.421875q-0.546875 0.40625 -0.78125 1.140625q-0.34375 1.125 -0.34375 2.46875l0 6.515625l-2.109375 0zm16.132812 -1.53125q-1.171875 0.984375 -2.265625 1.40625q-1.078125 0.40625 -2.3125 0.40625q-2.046875 0 -3.15625 -1.0q-1.09375 -1.0 -1.09375 -2.5625q0 -0.921875 0.40625 -1.671875q0.421875 -0.75 1.09375 -1.203125q0.671875 -0.46875 1.515625 -0.703125q0.625 -0.15625 1.875 -0.3125q2.5625 -0.3125 3.765625 -0.734375q0.015625 -0.421875 0.015625 -0.546875q0 -1.28125 -0.609375 -1.8125q-0.796875 -0.71875 -2.390625 -0.71875q-1.5 0 -2.203125 0.53125q-0.703125 0.515625 -1.046875 1.84375l-2.0625 -0.28125q0.28125 -1.328125 0.921875 -2.140625q0.640625 -0.8125 1.859375 -1.25q1.21875 -0.453125 2.828125 -0.453125q1.59375 0 2.59375 0.375q1.0 0.375 1.46875 0.953125q0.46875 0.5625 0.65625 1.4375q0.09375 0.53125 0.09375 1.9375l0 2.8125q0 2.9375 0.140625 3.71875q0.140625 0.78125 0.53125 1.5l-2.203125 0q-0.328125 -0.65625 -0.421875 -1.53125zm-0.171875 -4.71875q-1.15625 0.46875 -3.453125 0.796875q-1.296875 0.1875 -1.84375 0.421875q-0.53125 0.234375 -0.828125 0.6875q-0.28125 0.453125 -0.28125 1.0q0 0.84375 0.625 1.40625q0.640625 0.5625 1.875 0.5625q1.21875 0 2.171875 -0.53125q0.953125 -0.53125 1.390625 -1.453125q0.34375 -0.71875 0.34375 -2.109375l0 -0.78125zm10.003906 4.359375l0.3125 1.859375q-0.890625 0.203125 -1.59375 0.203125q-1.15625 0 -1.796875 -0.359375q-0.625 -0.375 -0.890625 -0.96875q-0.25 -0.59375 -0.25 -2.484375l0 -7.171875l-1.546875 0l0 -1.640625l1.546875 0l0 -3.078125l2.09375 -1.265625l0 4.34375l2.125 0l0 1.640625l-2.125 0l0 7.28125q0 0.90625 0.109375 1.171875q0.125 0.25 0.375 0.40625q0.25 0.140625 0.71875 0.140625q0.34375 0 0.921875 -0.078125zm2.0742188 -12.859375l0 -2.4375l2.109375 0l0 2.4375l-2.109375 0zm0 14.75l0 -12.453125l2.109375 0l0 12.453125l-2.109375 0zm4.5351562 -6.21875q0 -3.46875 1.921875 -5.125q1.609375 -1.390625 3.921875 -1.390625q2.5625 0 4.1875 1.6875q1.625 1.6875 1.625 4.640625q0 2.40625 -0.71875 3.78125q-0.71875 1.375 -2.09375 2.140625q-1.375 0.765625 -3.0 0.765625q-2.625 0 -4.234375 -1.671875q-1.609375 -1.6875 -1.609375 -4.828125zm2.171875 0q0 2.390625 1.03125 3.578125q1.046875 1.1875 2.640625 1.1875q1.5625 0 2.609375 -1.1875q1.046875 -1.203125 1.046875 -3.65625q0 -2.3125 -1.0625 -3.5q-1.046875 -1.1875 -2.59375 -1.1875q-1.59375 0 -2.640625 1.1875q-1.03125 1.1875 -1.03125 3.578125zm11.957031 6.21875l0 -12.453125l1.90625 0l0 1.78125q1.375 -2.0625 3.953125 -2.0625q1.125 0 2.0625 0.40625q0.953125 0.40625 1.421875 1.0625q0.46875 0.65625 0.65625 1.5625q0.125 0.578125 0.125 2.046875l0 7.65625l-2.109375 0l0 -7.578125q0 -1.28125 -0.25 -1.921875q-0.25 -0.640625 -0.875 -1.015625q-0.625 -0.390625 -1.46875 -0.390625q-1.34375 0 -2.328125 0.859375q-0.984375 0.859375 -0.984375 3.25l0 6.796875l-2.109375 0z"
       fill-rule="nonzero"
       id="path4188" />
    <path
       fill="#000000"
       fill-opacity="0.0"
       d="m251.26772 366.12335l48.976364 0"
       fill-rule="evenodd"
       id="path4190" />
    <path
       stroke="#000000"
       stroke-width="2.0"
       stroke-linejoin="round"
       stroke-linecap="butt"
       d="m251.26772 366.12335l48.976364 0"
       fill-rule="evenodd"
       id="path4192" />
    <path
       fill="#000000"
       fill-opacity="0.0"
       d="m430.9895 0l102.11023 0l0 40.40945l-102.11023 0z"
       fill-rule="evenodd"
       id="path4194" />
    <path
       fill="#000000"
       d="m441.89575 32.04l0 -17.1875l12.421875 0l0 2.03125l-10.15625 0l0 5.265625l9.5 0l0 2.015625l-9.5 0l0 5.84375l10.546875 0l0 2.03125l-12.8125 0zm14.2734375 0l4.546875 -6.46875l-4.203125 -5.984375l2.640625 0l1.90625 2.921875q0.546875 0.828125 0.875 1.390625q0.515625 -0.765625 0.9375 -1.359375l2.109375 -2.953125l2.515625 0l-4.296875 5.859375l4.625 6.59375l-2.59375 0l-2.546875 -3.875l-0.6875 -1.03125l-3.265625 4.90625l-2.5625 0zm13.40625 4.765625l0 -17.21875l1.921875 0l0 1.625q0.6875 -0.953125 1.53125 -1.421875q0.859375 -0.484375 2.078125 -0.484375q1.59375 0 2.8125 0.828125q1.21875 0.8125 1.84375 2.3125q0.625 1.5 0.625 3.28125q0 1.90625 -0.6875 3.4375q-0.6875 1.53125 -2.0 2.34375q-1.296875 0.8125 -2.734375 0.8125q-1.0625 0 -1.90625 -0.4375q-0.828125 -0.453125 -1.375 -1.140625l0 6.0625l-2.109375 0zm1.921875 -10.921875q0 2.40625 0.96875 3.5625q0.96875 1.140625 2.359375 1.140625q1.40625 0 2.40625 -1.1875q1.0 -1.1875 1.0 -3.6875q0 -2.375 -0.984375 -3.5625q-0.96875 -1.1875 -2.328125 -1.1875q-1.359375 0 -2.390625 1.265625q-1.03125 1.25 -1.03125 3.65625zm11.378906 6.15625l0 -17.1875l2.109375 0l0 17.1875l-2.109375 0zm4.5976562 -6.21875q0 -3.46875 1.921875 -5.125q1.609375 -1.390625 3.921875 -1.390625q2.5625 0 4.1875 1.6875q1.625 1.6875 1.625 4.640625q0 2.40625 -0.71875 3.78125q-0.71875 1.375 -2.09375 2.140625q-1.375 0.765625 -3.0 0.765625q-2.625 0 -4.234375 -1.671875q-1.609375 -1.6875 -1.609375 -4.828125zm2.171875 0q0 2.390625 1.03125 3.578125q1.046875 1.1875 2.640625 1.1875q1.5625 0 2.609375 -1.1875q1.046875 -1.203125 1.046875 -3.65625q0 -2.3125 -1.0625 -3.5q-1.046875 -1.1875 -2.59375 -1.1875q-1.59375 0 -2.640625 1.1875q-1.03125 1.1875 -1.03125 3.578125zm11.941406 6.21875l0 -12.453125l1.890625 0l0 1.890625q0.734375 -1.328125 1.34375 -1.75q0.625 -0.421875 1.359375 -0.421875q1.0625 0 2.171875 0.6875l-0.734375 1.953125q-0.765625 -0.453125 -1.546875 -0.453125q-0.6875 0 -1.25 0.421875q-0.546875 0.40625 -0.78125 1.140625q-0.34375 1.125 -0.34375 2.46875l0 6.515625l-2.109375 0zm16.539062 -4.015625l2.171875 0.28125q-0.515625 1.90625 -1.90625 2.96875q-1.390625 1.046875 -3.5625 1.046875q-2.734375 0 -4.34375 -1.671875q-1.59375 -1.6875 -1.59375 -4.734375q0 -3.140625 1.609375 -4.875q1.625 -1.734375 4.203125 -1.734375q2.5 0 4.078125 1.703125q1.59375 1.703125 1.59375 4.78125q0 0.1875 -0.015625 0.5625l-9.28125 0q0.109375 2.046875 1.15625 3.140625q1.046875 1.09375 2.609375 1.09375q1.15625 0 1.96875 -0.609375q0.828125 -0.609375 1.3125 -1.953125zm-6.9375 -3.40625l6.953125 0q-0.140625 -1.5625 -0.796875 -2.359375q-1.0 -1.21875 -2.609375 -1.21875q-1.453125 0 -2.453125 0.984375q-0.984375 0.96875 -1.09375 2.59375z"
       fill-rule="nonzero"
       id="path4196" />
    <path
       fill="#000000"
       fill-opacity="0.0"
       d="m423.66928 671.0289l112.66141 0l0 40.409424l-112.66141 0z"
       fill-rule="evenodd"
       id="path4198" />
    <path
       fill="#000000"
       d="m434.5599 703.06885l0 -17.1875l7.609375 0q2.296875 0 3.484375 0.46875q1.203125 0.46875 1.921875 1.640625q0.71875 1.171875 0.71875 2.578125q0 1.828125 -1.1875 3.09375q-1.1875 1.25 -3.65625 1.59375q0.90625 0.421875 1.375 0.84375q1.0 0.921875 1.890625 2.296875l2.984375 4.671875l-2.859375 0l-2.28125 -3.578125q-0.984375 -1.546875 -1.640625 -2.359375q-0.640625 -0.828125 -1.15625 -1.15625q-0.5 -0.328125 -1.03125 -0.453125q-0.390625 -0.078125 -1.265625 -0.078125l-2.640625 0l0 7.625l-2.265625 0zm2.265625 -9.59375l4.890625 0q1.5625 0 2.4375 -0.328125q0.875 -0.328125 1.328125 -1.03125q0.46875 -0.703125 0.46875 -1.546875q0 -1.21875 -0.890625 -2.0q-0.875 -0.78125 -2.796875 -0.78125l-5.4375 0l0 5.6875zm23.285156 5.578125l2.171875 0.28125q-0.515625 1.90625 -1.90625 2.96875q-1.390625 1.046875 -3.5625 1.046875q-2.734375 0 -4.34375 -1.671875q-1.59375 -1.6875 -1.59375 -4.734375q0 -3.140625 1.609375 -4.875q1.625 -1.734375 4.203125 -1.734375q2.5 0 4.078125 1.703125q1.59375 1.703125 1.59375 4.78125q0 0.1875 -0.015625 0.5625l-9.28125 0q0.109375 2.046875 1.15625 3.140625q1.046875 1.09375 2.609375 1.09375q1.15625 0 1.96875 -0.609375q0.828125 -0.609375 1.3125 -1.953125zm-6.9375 -3.40625l6.953125 0q-0.140625 -1.5625 -0.796875 -2.359375q-1.0 -1.21875 -2.609375 -1.21875q-1.453125 0 -2.453125 0.984375q-0.984375 0.96875 -1.09375 2.59375zm12.269531 7.421875l0 -10.8125l-1.875 0l0 -1.640625l1.875 0l0 -1.3125q0 -1.265625 0.21875 -1.875q0.296875 -0.8125 1.0625 -1.3125q0.78125 -0.515625 2.15625 -0.515625q0.890625 0 1.96875 0.203125l-0.3125 1.84375q-0.65625 -0.125 -1.25 -0.125q-0.953125 0 -1.359375 0.421875q-0.390625 0.40625 -0.390625 1.53125l0 1.140625l2.421875 0l0 1.640625l-2.421875 0l0 10.8125l-2.09375 0zm14.277344 -1.53125q-1.171875 0.984375 -2.265625 1.40625q-1.078125 0.40625 -2.3125 0.40625q-2.046875 0 -3.15625 -1.0q-1.09375 -1.0 -1.09375 -2.5625q0 -0.921875 0.40625 -1.671875q0.421875 -0.75 1.09375 -1.203125q0.671875 -0.46875 1.515625 -0.703125q0.625 -0.15625 1.875 -0.3125q2.5625 -0.3125 3.765625 -0.734375q0.015625 -0.421875 0.015625 -0.546875q0 -1.28125 -0.609375 -1.8125q-0.796875 -0.71875 -2.390625 -0.71875q-1.5 0 -2.203125 0.53125q-0.703125 0.515625 -1.046875 1.84375l-2.0625 -0.28125q0.28125 -1.328125 0.921875 -2.140625q0.640625 -0.8125 1.859375 -1.25q1.21875 -0.453125 2.828125 -0.453125q1.59375 0 2.59375 0.375q1.0 0.375 1.46875 0.953125q0.46875 0.5625 0.65625 1.4375q0.09375 0.53125 0.09375 1.9375l0 2.8125q0 2.9375 0.140625 3.71875q0.140625 0.78125 0.53125 1.5l-2.203125 0q-0.328125 -0.65625 -0.421875 -1.53125zm-0.171875 -4.71875q-1.15625 0.46875 -3.453125 0.796875q-1.296875 0.1875 -1.84375 0.421875q-0.53125 0.234375 -0.828125 0.6875q-0.28125 0.453125 -0.28125 1.0q0 0.84375 0.625 1.40625q0.640625 0.5625 1.875 0.5625q1.21875 0 2.171875 -0.53125q0.953125 -0.53125 1.390625 -1.453125q0.34375 -0.71875 0.34375 -2.109375l0 -0.78125zm13.519531 1.6875l2.078125 0.265625q-0.34375 2.15625 -1.75 3.375q-1.390625 1.203125 -3.4375 1.203125q-2.546875 0 -4.109375 -1.671875q-1.546875 -1.671875 -1.546875 -4.78125q0 -2.015625 0.671875 -3.53125q0.671875 -1.515625 2.03125 -2.265625q1.359375 -0.765625 2.96875 -0.765625q2.03125 0 3.3125 1.03125q1.296875 1.03125 1.65625 2.90625l-2.046875 0.328125q-0.296875 -1.265625 -1.046875 -1.890625q-0.734375 -0.640625 -1.796875 -0.640625q-1.59375 0 -2.59375 1.15625q-0.984375 1.140625 -0.984375 3.609375q0 2.5 0.953125 3.640625q0.96875 1.140625 2.515625 1.140625q1.234375 0 2.0625 -0.765625q0.84375 -0.765625 1.0625 -2.34375zm8.484375 2.671875l0.3125 1.859375q-0.890625 0.203125 -1.59375 0.203125q-1.15625 0 -1.796875 -0.359375q-0.625 -0.375 -0.890625 -0.96875q-0.25 -0.59375 -0.25 -2.484375l0 -7.171875l-1.546875 0l0 -1.640625l1.546875 0l0 -3.078125l2.09375 -1.265625l0 4.34375l2.125 0l0 1.640625l-2.125 0l0 7.28125q0 0.90625 0.109375 1.171875q0.125 0.25 0.375 0.40625q0.25 0.140625 0.71875 0.140625q0.34375 0 0.921875 -0.078125zm1.2773438 -4.328125q0 -3.46875 1.921875 -5.125q1.609375 -1.390625 3.921875 -1.390625q2.5625 0 4.1875305 1.6875q1.625 1.6875 1.625 4.640625q0 2.40625 -0.71875 3.78125q-0.71875 1.375 -2.0937805 2.140625q-1.375 0.765625 -3.0 0.765625q-2.625 0 -4.234375 -1.671875q-1.609375 -1.6875 -1.609375 -4.828125zm2.171875 0q0 2.390625 1.03125 3.578125q1.046875 1.1875 2.640625 1.1875q1.5625 0 2.609375 -1.1875q1.0469055 -1.203125 1.0469055 -3.65625q0 -2.3125 -1.0625305 -3.5q-1.046875 -1.1875 -2.59375 -1.1875q-1.59375 0 -2.640625 1.1875q-1.03125 1.1875 -1.03125 3.578125zm11.941437 6.21875l0 -12.453125l1.890625 0l0 1.890625q0.734375 -1.328125 1.34375 -1.75q0.625 -0.421875 1.359375 -0.421875q1.0625 0 2.171875 0.6875l-0.734375 1.953125q-0.765625 -0.453125 -1.546875 -0.453125q-0.6875 0 -1.25 0.421875q-0.546875 0.40625 -0.78125 1.140625q-0.34375 1.125 -0.34375 2.46875l0 6.515625l-2.109375 0z"
       fill-rule="nonzero"
       id="path4200" />
    <path
       fill="#000000"
       fill-opacity="0.0"
       d="m479.74753 177.74933l0 39.290375"
       fill-rule="evenodd"
       id="path4202" />
    <path
       stroke="#000000"
       stroke-width="2.0"
       stroke-linejoin="round"
       stroke-linecap="butt"
       d="m479.7475 177.74933l0 27.290375"
       fill-rule="evenodd"
       id="path4204" />
    <path
       fill="#000000"
       stroke="#000000"
       stroke-width="2.0"
       stroke-linecap="butt"
       d="m476.44403 205.0397l3.3034668 9.076187l3.3034668 -9.076187z"
       fill-rule="evenodd"
       id="path4206" />
    <path
       fill="#000000"
       fill-opacity="0.0"
       d="m531.38007 85.371826l36.75238 -27.432343"
       fill-rule="evenodd"
       id="path4208" />
    <path
       stroke="#000000"
       stroke-width="2.0"
       stroke-linejoin="round"
       stroke-linecap="butt"
       d="m531.38007 85.371826l27.135803 -20.254456"
       fill-rule="evenodd"
       id="path4210" />
    <path
       fill="#000000"
       stroke="#000000"
       stroke-width="2.0"
       stroke-linecap="butt"
       d="m560.4919 67.764694l5.2974854 -8.076317l-9.249512 2.7816658z"
       fill-rule="evenodd"
       id="path4212" />
    <path
       fill="#000000"
       fill-opacity="0.0"
       d="m428.00473 84.12873l-36.144897 -26.212498"
       fill-rule="evenodd"
       id="path4214" />
    <path
       stroke="#000000"
       stroke-width="2.0"
       stroke-linejoin="round"
       stroke-linecap="butt"
       d="m428.00473 84.12873l-26.430542 -19.16758"
       fill-rule="evenodd"
       id="path4216" />
    <path
       fill="#000000"
       stroke="#000000"
       stroke-width="2.0"
       stroke-linecap="butt"
       d="m403.51358 62.286896l-9.286835 -2.6541672l5.4080505 8.002686z"
       fill-rule="evenodd"
       id="path4218" />
    <path
       fill="#000000"
       fill-opacity="0.0"
       d="m480.27823 618.7192l-0.28726196 33.38977"
       fill-rule="evenodd"
       id="path4220" />
    <path
       stroke="#000000"
       stroke-width="2.0"
       stroke-linejoin="round"
       stroke-linecap="butt"
       d="m480.175 630.7187l-0.184021 21.390259"
       fill-rule="evenodd"
       id="path4222" />
    <path
       fill="#000000"
       stroke="#000000"
       stroke-width="2.0"
       stroke-linecap="butt"
       d="m483.47833 630.74713l-3.2252808 -9.104248l-3.3814087 9.047424z"
       fill-rule="evenodd"
       id="path4224" />
    <path
       fill="#000000"
       fill-opacity="0.0"
       d="m493.39633 598.8084l30.271027 -22.200623"
       fill-rule="evenodd"
       id="path4226" />
    <path
       stroke="#000000"
       stroke-width="2.0"
       stroke-linejoin="round"
       stroke-linecap="butt"
       d="m503.0729 591.7117l20.594452 -15.103882"
       fill-rule="evenodd"
       id="path4228" />
    <path
       fill="#000000"
       stroke="#000000"
       stroke-width="2.0"
       stroke-linecap="butt"
       d="m501.11926 589.0478l-5.3652344 8.031494l9.272522 -2.7037964z"
       fill-rule="evenodd"
       id="path4230" />
    <path
       fill="#000000"
       fill-opacity="0.0"
       d="m467.95013 597.8583l-31.625244 -21.256775"
       fill-rule="evenodd"
       id="path4232" />
    <path
       stroke="#000000"
       stroke-width="2.0"
       stroke-linejoin="round"
       stroke-linecap="butt"
       d="m457.99078 591.1641l-21.665894 -14.562622"
       fill-rule="evenodd"
       id="path4234" />
    <path
       fill="#000000"
       stroke="#000000"
       stroke-width="2.0"
       stroke-linecap="butt"
       d="m456.14798 593.9058l9.375549 2.3214111l-5.6899414 -7.8048096z"
       fill-rule="evenodd"
       id="path4236" />
  </g>
</svg>
